{
    "asset" : {
        "generator" : "Khronos glTF Blender I/O v3.2.43",
        "version" : "2.0"
    },
    "scene" : 0,
    "scenes" : [
        {
            "name" : "Scene",
            "nodes" : [
                0
            ]
        }
    ],
    "nodes" : [
        {
            "mesh" : 0,
            "name" : "hand",
            "rotation" : [
                0.7033928036689758,
                0.011750522069633007,
                -0.013498927466571331,
                0.7105759978294373
            ],
            "scale" : [
                1.077309012413025,
                1.0773086547851562,
                1.0773086547851562
            ],
            "translation" : [
                -0.005791740491986275,
                0.09927228838205338,
                2.6126973628997803
            ]
        }
    ],
    "materials" : [
        {
            "doubleSided" : true,
            "name" : "HandText",
            "pbrMetallicRoughness" : {
                "baseColorTexture" : {
                    "index" : 0
                },
                "metallicFactor" : 0,
                "roughnessFactor" : 0
            }
        }
    ],
    "meshes" : [
        {
            "name" : "Sphere",
            "primitives" : [
                {
                    "attributes" : {
                        "POSITION" : 0,
                        "NORMAL" : 1,
                        "TEXCOORD_0" : 2
                    },
                    "indices" : 3,
                    "material" : 0
                }
            ]
        }
    ],
    "textures" : [
        {
            "sampler" : 0,
            "source" : 0
        }
    ],
    "images" : [
        {
            "mimeType" : "image/png",
            "name" : "handColor",
            "uri" : "handColor.png"
        }
    ],
    "accessors" : [
        {
            "bufferView" : 0,
            "componentType" : 5126,
            "count" : 9220,
            "max" : [
                1.9966318607330322,
                2.2532310485839844,
                1.7237101793289185
            ],
            "min" : [
                -2.6160404682159424,
                -3.7960081100463867,
                -0.5197559595108032
            ],
            "type" : "VEC3"
        },
        {
            "bufferView" : 1,
            "componentType" : 5126,
            "count" : 9220,
            "type" : "VEC3"
        },
        {
            "bufferView" : 2,
            "componentType" : 5126,
            "count" : 9220,
            "type" : "VEC2"
        },
        {
            "bufferView" : 3,
            "componentType" : 5123,
            "count" : 13698,
            "type" : "SCALAR"
        }
    ],
    "bufferViews" : [
        {
            "buffer" : 0,
            "byteLength" : 110640,
            "byteOffset" : 0
        },
        {
            "buffer" : 0,
            "byteLength" : 110640,
            "byteOffset" : 110640
        },
        {
            "buffer" : 0,
            "byteLength" : 73760,
            "byteOffset" : 221280
        },
        {
            "buffer" : 0,
            "byteLength" : 27396,
            "byteOffset" : 295040
        }
    ],
    "samplers" : [
        {
            "magFilter" : 9729,
            "minFilter" : 9987
        }
    ],
    "buffers" : [
        {
            "byteLength" : 322436,
            "uri" : "hand.bin"
        }
    ]
}
