{"accessors":[{"bufferView":0,"byteOffset":0,"componentType":5126,"count":24,"max":[1,1,1],"min":[-1,-1,-1],"normalized":false,"type":"VEC3"},{"bufferView":1,"byteOffset":0,"componentType":5126,"count":24,"max":[0.999969,0,0.999969,1],"min":[-0.999969,-0.007936,-1,1],"normalized":false,"type":"VEC4"},{"bufferView":2,"byteOffset":0,"componentType":5126,"count":24,"max":[1,1,1],"min":[-1,-1,-1],"normalized":false,"type":"VEC3"},{"bufferView":3,"byteOffset":0,"componentType":5126,"count":24,"max":[1,1],"min":[0,0],"normalized":false,"type":"VEC2"},{"bufferView":4,"byteOffset":0,"componentType":5125,"count":36,"max":[23],"min":[0],"normalized":false,"type":"SCALAR"}],"asset":{"generator":"Godot Engine v3.5.stable.official@991bb6ac74ac8c09d7683041b50a8ced3a2defb1","version":"2.0"},"bufferViews":[{"buffer":0,"byteLength":288,"byteOffset":0},{"buffer":0,"byteLength":384,"byteOffset":288},{"buffer":0,"byteLength":288,"byteOffset":672},{"buffer":0,"byteLength":192,"byteOffset":960},{"buffer":0,"byteLength":144,"byteOffset":1152}],"buffers":[{"byteLength":1296,"uri":"testing_mesh_export0.bin"}],"extensionsRequired":["KHR_texture_transform"],"extensionsUsed":["KHR_lights_punctual","KHR_texture_transform"],"meshes":[{"extras":{"targetNames":[]},"primitives":[{"attributes":{"NORMAL":2,"POSITION":0,"TANGENT":1,"TEXCOORD_0":3},"indices":4,"mode":4}]}],"nodes":[{"children":[1],"extensions":{},"name":"Spatial"},{"extensions":{},"mesh":0,"name":"MeshInstance","scale":[7.800684,0.100778,7.800684]}],"scene":0,"scenes":[{"nodes":[0]}]}